<svg viewBox="0 0 500 100" xmlns="http://www.w3.org/2000/svg">
  <defs></defs>
  <g fill="#FFF" text-anchor="middle" transform="matrix(1, 0, 0, 1, -259.30249, -342.865997)">
    <g style="line-height:1;font-variant-ligatures:none;text-align:center" fill="#30c3a8" font-family="Meedori Sans" font-size="72" font-weight="700">
      <g>
        <path style="line-height:1;font-variant-ligatures:none;text-align:center" d="M 289.507 363.032 C 293.663 363.139 297.552 364.018 301.175 365.669 C 304.798 367.268 307.968 369.426 310.685 372.143 C 313.402 374.86 315.534 378.03 317.079 381.653 C 318.624 385.223 319.397 389.006 319.397 393.002 C 319.397 397.158 318.571 401.074 316.919 404.75 C 315.268 408.373 313.057 411.543 310.286 414.26 C 307.515 416.925 304.319 419.029 300.696 420.574 C 297.126 422.119 293.396 422.919 289.506 422.972 L 269.526 422.972 L 269.526 412.902 L 290.706 412.902 C 293.317 413.009 295.741 412.503 297.978 411.384 C 300.269 410.265 302.267 408.773 303.972 406.908 C 305.677 404.99 307.009 402.832 307.968 400.435 C 308.981 397.984 309.487 395.506 309.487 393.002 C 309.487 390.498 308.981 388.047 307.968 385.649 C 307.009 383.198 305.677 381.041 303.972 379.176 C 302.321 377.311 300.349 375.819 298.058 374.7 C 295.767 373.581 293.317 373.049 290.706 373.102 L 269.526 373.102 L 269.526 363.032 L 289.506 363.032 L 289.507 363.032 Z M 373.097 373.022 L 343.047 373.022 L 343.047 387.967 L 368.621 387.967 L 368.621 397.957 L 343.047 397.957 L 343.047 412.982 L 373.097 412.982 L 373.097 422.972 L 333.057 422.972 L 333.057 363.032 L 373.097 363.032 L 373.097 373.022 Z M 492.977 373.022 L 462.927 373.022 L 462.927 387.967 L 488.501 387.967 L 488.501 397.957 L 462.927 397.957 L 462.927 412.982 L 492.977 412.982 L 492.977 422.972 L 452.937 422.972 L 452.937 363.032 L 492.977 363.032 L 492.977 373.022 Z M 548.158 362.952 L 558.148 362.952 L 558.148 422.972 L 518.028 385.729 L 518.028 422.972 L 508.038 422.972 L 508.038 362.952 L 548.158 400.195 L 548.158 362.952 Z M 620.241 373.022 L 600.261 373.022 L 600.261 422.972 L 590.271 422.972 L 590.271 373.022 L 570.291 373.022 L 570.291 363.032 L 620.241 363.032 L 620.241 373.022 Z M 678.882 422.972 L 667.773 422.972 L 654.506 398.516 L 642.199 398.516 L 642.199 422.972 L 632.289 422.972 L 632.289 363.032 L 661.139 363.032 C 664.23 363.192 667 363.938 669.451 365.27 C 670.464 365.856 671.476 366.575 672.488 367.428 C 673.501 368.28 674.38 369.319 675.126 370.544 C 675.925 371.77 676.565 373.235 677.044 374.94 C 677.524 376.592 677.764 378.537 677.764 380.774 C 677.764 384.397 677.177 387.381 676.004 389.725 C 674.833 392.016 673.501 393.828 672.009 395.16 C 670.57 396.439 669.185 397.318 667.853 397.797 C 666.574 398.277 665.802 398.517 665.535 398.517 L 678.882 422.972 Z M 642.199 388.606 L 661.139 388.606 C 662.365 388.553 663.457 388.233 664.416 387.647 C 665.269 387.168 666.042 386.395 666.734 385.33 C 667.427 384.264 667.774 382.745 667.774 380.774 C 667.774 378.856 667.427 377.364 666.734 376.299 C 666.041 375.233 665.269 374.46 664.416 373.981 C 663.457 373.394 662.365 373.075 661.14 373.022 L 642.199 373.022 L 642.199 388.606 Z M 719.029 362.952 L 749.079 422.972 L 738.05 422.972 L 731.257 410.824 L 706.881 410.824 L 701.207 422.972 L 689.059 422.972 L 719.029 362.952 Z M 712.396 400.674 L 726.782 400.674 L 719.029 385.25 L 712.396 400.674 Z"></path>
        <circle style="" cx="277.637" cy="392.866" r="8.111"></circle>
        <path style="line-height:1;font-variant-ligatures:none;text-align:center" d="M 404.615 362.76 C 408.771 362.867 412.66 363.746 416.283 365.397 C 419.906 366.996 423.076 369.154 425.793 371.871 C 428.51 374.588 430.642 377.758 432.187 381.381 C 433.732 384.951 434.505 388.734 434.505 392.73 C 434.505 396.886 433.679 400.802 432.027 404.478 C 430.376 408.101 428.165 411.271 425.394 413.988 C 422.623 416.653 419.427 418.757 415.804 420.302 C 412.234 421.847 408.504 422.647 404.614 422.7 L 384.634 422.7 L 384.634 412.63 L 405.814 412.63 C 408.425 412.737 410.849 412.231 413.086 411.112 C 415.377 409.993 417.375 408.501 419.08 406.636 C 420.785 404.718 422.117 402.56 423.076 400.163 C 424.089 397.712 424.595 395.234 424.595 392.73 C 424.595 390.226 424.089 387.775 423.076 385.377 C 422.117 382.926 420.785 380.769 419.08 378.904 C 417.429 377.039 415.457 375.547 413.166 374.428 C 410.875 373.309 408.425 372.777 405.814 372.83 L 384.634 372.83 L 384.634 362.76 L 404.614 362.76 L 404.615 362.76 Z" transform="matrix(-1, 0, 0, -1, 819.139008, 785.460022)"></path>
      </g>
    </g>
  </g>
</svg>